<svg width="21" height="15" viewBox="0 0 21 15" fill="none" xmlns="http://www.w3.org/2000/svg">
<g id="Group 21">
<path id="Vector" d="M10.0021 0.00555478C12.8142 0.00555478 15.6263 0.00555478 18.4384 0.00555478C19.1946 0.00555478 19.7632 0.436745 19.9507 1.1304C20.1944 2.03652 19.532 2.9489 18.5947 3.00514C18.5322 3.01139 18.4697 3.00514 18.4072 3.00514C12.808 3.00514 7.20874 3.00514 1.60952 3.00514C0.859622 3.00514 0.284702 2.61144 0.0784803 1.96153C-0.227727 0.999167 0.478425 0.018053 1.50328 0.00555478C2.66562 -0.00694348 3.82796 0.00555478 4.99655 0.00555478C6.65882 0.00555478 8.32734 0.00555478 10.0021 0.00555478Z" fill="#EFB8C8"/>
<path id="Vector_2" d="M10.002 6.0047C12.8141 6.0047 15.6262 6.0047 18.4383 6.0047C19.1945 6.0047 19.7631 6.43589 19.9506 7.12954C20.1943 8.03567 19.5319 8.94804 18.5946 9.00428C18.5321 9.01053 18.4696 9.00428 18.4071 9.00428C12.8079 9.00428 7.20864 9.00428 1.60942 9.00428C0.859525 9.00428 0.284605 8.61059 0.0783838 7.96068C-0.227824 6.99831 0.478328 6.0172 1.49694 6.0047C2.64678 5.9922 3.79037 6.0047 4.94021 6.0047C6.62747 6.0047 8.31474 6.0047 10.002 6.0047Z" fill="#EFB8C8"/>
<path id="Vector_3" d="M10.0019 12.004C12.8141 12.004 15.6262 12.004 18.4383 12.004C19.1882 12.004 19.7631 12.4352 19.9443 13.1288C20.1818 14.0349 19.5194 14.9473 18.582 14.9973C18.5195 15.0036 18.457 14.9973 18.3945 14.9973C12.7953 14.9973 7.19608 14.9973 1.59686 14.9973C0.853213 14.9973 0.272044 14.5974 0.0720716 13.9537C-0.234136 12.9913 0.472016 12.0102 1.49687 12.004C2.77795 11.9915 4.05902 12.004 5.34009 12.004C6.89612 12.004 8.44591 12.004 10.0019 12.004Z" fill="#EFB8C8"/>
</g>
</svg>
