<svg width="18" height="33" viewBox="0 0 18 33" fill="none" xmlns="http://www.w3.org/2000/svg">
<g id="Vector">
<path id="Vector_2" d="M11.8503 12.2062C13.7123 12.2062 15.6006 12.2062 17.5151 12.2062C17.2528 14.1211 17.0168 16.0101 16.7808 17.9249C15.1285 17.9249 13.4763 17.9249 11.824 17.9249C11.824 22.8156 11.824 27.6803 11.824 32.5451C9.83087 32.5451 7.83769 32.5451 5.84452 32.5451C5.84452 27.6803 5.84452 22.8156 5.84452 17.9249C4.16605 17.9249 2.51381 17.9249 0.861572 17.9249C0.861572 16.0101 0.861572 14.1211 0.861572 12.2062C2.51381 12.2062 4.16605 12.2062 5.84452 12.2062C5.84452 12.051 5.84452 11.9216 5.84452 11.7922C5.84452 10.2914 5.81829 8.79057 5.87074 7.31561C5.94942 5.53014 6.47394 3.89993 7.73279 2.58023C8.83428 1.4158 10.198 0.794763 11.7716 0.587752C13.5025 0.328988 15.2072 0.510123 16.9381 0.613629C17.1742 0.639505 17.4102 0.665381 17.6725 0.691258C17.6987 0.691258 17.6987 0.717134 17.7511 0.717134C17.7511 2.3991 17.7511 4.05519 17.7511 5.7889C17.62 5.7889 17.5151 5.7889 17.4102 5.7889C16.2825 5.81478 15.1548 5.78891 14.0533 5.84066C12.6895 5.91829 11.9552 6.61695 11.8765 7.93665C11.7978 9.30809 11.8503 10.7054 11.8503 12.0769C11.7978 12.1286 11.824 12.1545 11.8503 12.2062Z" fill="#EFB8C8"/>
</g>
</svg>
