<svg width="30" height="31" viewBox="0 0 30 31" fill="none" xmlns="http://www.w3.org/2000/svg">
<g id="Group 11">
<path id="Vector" d="M19.387 30.1484C16.4502 30.1484 13.5076 30.1484 10.5708 30.1484C10.393 30.1311 10.2152 30.1082 10.0316 30.1025C8.86722 30.0681 7.70855 30.0279 6.56708 29.7526C4.14075 29.1675 2.33965 27.7909 1.26702 25.5194C0.601642 24.1141 0.406619 22.5998 0.389411 21.0625C0.354995 17.9077 0.326315 14.7472 0.343523 11.5867C0.349259 10.0781 0.360731 8.55232 0.727834 7.0667C1.37027 4.47976 2.87883 2.6213 5.36826 1.61176C6.70475 1.07258 8.1158 0.917704 9.54407 0.900496C12.521 0.86608 15.498 0.843136 18.475 0.854608C20.0352 0.860344 21.6069 0.848872 23.1441 1.1873C25.9834 1.80678 27.9738 3.43581 28.9776 6.20056C29.4595 7.52558 29.5742 8.91369 29.5742 10.3133C29.5856 13.6918 29.5971 17.0703 29.5684 20.4488C29.5627 21.4067 29.4824 22.3761 29.339 23.3225C29.035 25.2613 28.1631 26.919 26.6316 28.1809C25.1345 29.4141 23.3678 29.9074 21.4749 30.0394C20.7752 30.0795 20.0811 30.1139 19.387 30.1484ZM14.9875 27.5614C14.9875 27.5442 14.9875 27.5327 14.9875 27.5155C15.7619 27.5155 16.5362 27.5385 17.3049 27.5098C18.9626 27.4524 20.626 27.4524 22.2722 27.2689C24.515 27.0222 26.1154 25.5768 26.6201 23.42C26.8324 22.5195 26.9127 21.573 26.9299 20.6438C26.9815 17.9249 26.9987 15.2061 26.9815 12.4872C26.97 11.0704 26.9241 9.64216 26.7578 8.23684C26.4767 5.88508 24.9911 4.28474 22.6738 3.82586C21.6642 3.6251 20.6088 3.562 19.5763 3.54479C16.8288 3.50464 14.0812 3.4989 11.3337 3.53332C10.0603 3.55053 8.77544 3.59642 7.51352 3.77997C5.28222 4.10692 3.76218 5.55813 3.30903 7.77222C3.11401 8.7244 3.04518 9.71673 3.02797 10.6976C2.97635 13.0551 2.95914 15.4126 2.98782 17.7643C3.00503 19.4106 3.04518 21.0683 3.20579 22.703C3.36639 24.3722 4.1637 25.7259 5.64932 26.5978C6.57282 27.137 7.6053 27.3607 8.66072 27.3951C10.7716 27.4696 12.8767 27.5098 14.9875 27.5614Z" fill="#EFB8C8"/>
<path id="Vector_2" d="M7.44483 15.4986C7.4391 11.3515 10.8233 7.96723 14.9819 7.97297C19.1348 7.9787 22.4846 11.3171 22.5076 15.4814C22.5305 19.6285 19.152 23.0185 14.9934 23.03C10.8405 23.0357 7.4563 19.6629 7.44483 15.4986ZM14.9533 20.3742C17.6549 20.3857 19.8403 18.2289 19.8575 15.533C19.8747 12.8314 17.718 10.6402 15.0221 10.623C12.309 10.6001 10.1121 12.7683 10.1006 15.4814C10.0891 18.1773 12.2516 20.3627 14.9533 20.3742Z" fill="#EFB8C8"/>
<path id="Vector_3" d="M22.823 5.9195C23.8096 5.92524 24.5724 6.71107 24.561 7.7034C24.5495 8.67278 23.7637 9.43567 22.7943 9.42993C21.8249 9.42419 21.0448 8.62115 21.0563 7.64603C21.062 6.67665 21.8536 5.90803 22.823 5.9195Z" fill="#EFB8C8"/>
</g>
</svg>
