<svg width="28" height="33" viewBox="0 0 28 33" fill="none" xmlns="http://www.w3.org/2000/svg">
<g id="Vector">
<path id="Vector_2" d="M9.71676 32.2636C9.02062 32.1567 8.31629 32.1074 7.62834 31.9513C3.75453 31.0554 0.732459 27.6775 0.249256 23.7325C-0.397745 18.4725 3.15666 13.7221 8.39819 12.8591C9.41373 12.6947 10.4293 12.6701 11.4612 12.8509C11.4612 14.5768 11.4612 16.2863 11.4612 18.0287C11.1909 17.9794 10.9371 17.9219 10.675 17.8808C8.15249 17.5109 5.74467 19.2862 5.41707 21.7518C5.06491 24.4065 6.82573 26.7406 9.42192 27.094C12.0345 27.4474 14.6962 25.4091 14.6716 22.3271C14.6389 18.5876 14.6716 14.848 14.6716 11.1085C14.6716 7.78812 14.6716 4.47596 14.6716 1.15558C14.6716 1.02408 14.6716 0.892576 14.6716 0.73642C16.3833 0.73642 18.0704 0.73642 19.7494 0.73642C19.8231 1.26242 19.8722 1.79664 19.9787 2.31442C20.6994 5.83205 23.8034 8.46206 27.3741 8.58534C27.6854 8.59356 27.7673 8.67574 27.7591 8.98806C27.7427 10.4428 27.7509 11.9057 27.7509 13.3604C27.7509 13.4673 27.7509 13.5823 27.7509 13.7221C24.7943 13.7056 22.1818 12.8016 19.7985 11.0263C19.7985 11.1907 19.7985 11.2975 19.7985 11.4126C19.8067 15.0453 19.8149 18.6862 19.8313 22.3189C19.8395 24.2996 19.3481 26.1488 18.2342 27.7926C16.4161 30.4719 13.8854 31.9431 10.6586 32.2061C10.5439 32.2143 10.4375 32.2389 10.331 32.2554C10.1263 32.2636 9.9297 32.2636 9.71676 32.2636Z" fill="#EFB8C8"/>
</g>
</svg>
