<svg width="33" height="27" viewBox="0 0 33 27" fill="none" xmlns="http://www.w3.org/2000/svg">
<g id="Vector">
<path id="Vector_2" d="M32.1117 0.774401C31.5835 2.3339 30.6471 3.48761 29.3426 4.37079C30.5991 4.25144 31.7836 3.90135 32.928 3.43191C32.952 3.45578 32.9761 3.48761 33.0001 3.51148C32.4638 4.14005 31.9516 4.79249 31.3754 5.38924C30.9112 5.86664 30.359 6.26447 29.8708 6.718C29.7748 6.80552 29.6867 6.98056 29.6867 7.10787C29.6787 13.9903 26.9576 19.5202 21.3234 23.5542C18.9384 25.2649 16.2093 26.1799 13.2961 26.5538C10.551 26.9119 7.84594 26.7289 5.18887 25.9651C3.5242 25.4877 1.95557 24.7795 0.482979 23.8645C0.450966 23.8406 0.418953 23.8168 0.346924 23.7531C3.98839 24.0793 7.22969 23.2041 10.1669 21.0001C7.10164 20.7216 5.05282 19.186 3.90836 16.3375C4.93277 16.4649 5.87715 16.4728 6.87755 16.2182C2.85193 15.1997 1.44336 11.6352 1.61944 9.59829C2.5238 10.0518 3.46018 10.3542 4.58063 10.378C2.89995 9.16068 1.93156 7.60118 1.68346 5.64385C1.49138 4.19575 1.7795 2.8113 2.53981 1.49845C6.17327 5.74729 10.7591 8.09449 16.3294 8.46845C16.3053 7.8001 16.2493 7.16357 16.2653 6.53499C16.3454 3.81383 18.4582 1.1961 21.1153 0.519789C23.6043 -0.108784 25.7972 0.44818 27.6779 2.19068C27.774 2.2782 27.958 2.32594 28.0861 2.30207C29.3986 2.03155 30.6391 1.57006 31.8076 0.91762C31.8876 0.877837 31.9676 0.84601 32.1117 0.774401Z" fill="#EFB8C8"/>
</g>
</svg>
