<svg width="38" height="27" viewBox="0 0 38 27" fill="none" xmlns="http://www.w3.org/2000/svg">
<g id="Vector">
<path id="Vector_2" d="M30.0713 0.818832C30.9717 0.859565 31.8722 0.975946 32.7551 1.1447C34.9045 1.54621 36.2639 2.98351 36.6705 5.2413C37.2282 8.3603 37.3444 11.5084 37.2398 14.6623C37.1643 16.8677 36.9552 19.0673 36.7402 21.2611C36.5834 22.8846 35.9269 24.2637 34.4979 25.1831C33.6323 25.7359 32.6564 25.893 31.663 25.9978C27.8232 26.4051 12.3766 26.3353 8.51351 26.2131C7.25292 26.1724 5.99233 26.0152 4.74917 25.829C2.64045 25.509 1.1533 24.0717 0.787325 21.8895C0.508485 20.2311 0.357447 18.5552 0.235455 16.8852C0.0437526 14.1502 0.096035 11.4095 0.316783 8.68034C0.421348 7.41179 0.566577 6.13161 0.827989 4.88633C1.29272 2.65765 2.85539 1.32509 5.10934 1.03996C8.72845 0.586071 26.2489 0.65008 30.0713 0.818832ZM15.0198 19.044C18.238 17.1878 21.4273 15.349 24.6688 13.481C21.4331 11.6131 18.2439 9.77432 15.0198 7.91805C15.0198 11.6422 15.0198 15.314 15.0198 19.044Z" fill="#EFB8C8"/>
</g>
</svg>
